Genre:Action | Drama | Thriller
Language:English
IMDb:http://www.imdb.com/title/tt0472399/
Source:BluRay.720p.DTS.x264.CHD
Subtitles:Romana


Format : MPEG-4
Format profile : Base Media
Codec ID : isom
File size : 2.18 GiB
Duration : 1h 32mn
Overall bit rate : 3 370 Kbps


Video
Format profile : High@L4.1
Format settings, CABAC : Yes
Format settings, ReFrames : 3 frames
Codec ID : avc1
Codec ID/Info : Advanced Video Coding
Duration : 1h 32mn
Bit rate mode : Variable
Bit rate : 3 000 Kbps
Maximum bit rate : 17.9 Mbps
Width : 1 280 pixels
Height : 528 pixels
Display aspect ratio : 2.40:1
Frame rate mode : Constant
Frame rate : 23.976 fps
Color space : YUV
Chroma subsampling : 4:2:0
Bit depth : 8 bits
Scan type : Progressive
Bits/(Pixel*Frame) : 0.185
Stream size : 1.89 GiB (87%)
Writing library : x264


Audio
ID : 2
Format : AAC
Format/Info : Advanced Audio Codec
Format version : Version 4
Format profile : LC
Format settings, SBR : No
Codec ID : 40
Duration : 1h 32mn
Bit rate mode : Variable
Bit rate : 445 Kbps
Maximum bit rate : 546 Kbps
Channel(s) : 6 channels
Channel positions : Front: L C R, Side: L R, LFE
Sampling rate : 48.0 KHz
Stream size : 295 MiB (13%)
Encoded date : UTC 2011-04-15 03:23:26
Tagged date : UTC 2011-04-15 03:24:43



Plot:
Follows an elite hit man as he teaches his trade to an apprentice who has a connection to one of his previous victims.

Greets:

INK,CRYS,IMAGINE,LKRG,FXG,3Li,FLAWL3SS,TA,iLLUSiON,ViSiON,DTRG SAFCuk009,LU,TheFalcon007,MYSTiC,PrisM,Noir,WBZ,LAP,Rx,Kingdom,SAFCuk009+Fabreezy,HDLiTE,TWiZTED,ExtraTorrentRG.ELEKTRI4KA,MAGNAT,CM8
And to all the other p2p grps past and present.

Screens:
 
http://www.pix2links.com/images/97095283393472286898.png 
http://www.pix2links.com/images/26444692563560066727.png 
http://www.pix2links.com/images/09225377274126640533.png 
http://www.pix2links.com/images/12254490978664647677.png